<svg width="106" height="103" viewBox="0 0 106 103" fill="none" xmlns="http://www.w3.org/2000/svg">
<path d="M16.64 55.0385C16.64 49.4732 16.64 44.0072 16.64 38.5435C16.64 33.172 16.6331 27.8028 16.6423 22.4313C16.6469 19.839 17.6612 18.8103 20.2326 18.808C30.1165 18.7988 40.0027 18.8034 49.8865 18.8034C50.4572 18.8034 51.0302 18.8034 51.7949 18.8034C51.7949 18.1553 51.7949 17.6433 51.7949 17.1313C51.7949 12.7285 51.788 8.32567 51.7972 3.92285C51.8018 1.28439 53.0749 0.00667317 55.7041 0.00436682C63.5063 -0.00255223 71.3062 -0.000245878 79.1084 0.00436682C81.7653 0.00436682 82.9321 1.1437 82.939 3.77986C82.9529 9.77867 82.9552 15.7798 82.939 21.7786C82.9321 24.2787 81.7053 25.4918 79.1662 25.5011C73.7876 25.5218 68.4089 25.508 63.0304 25.508C62.4551 25.508 61.8798 25.508 61.182 25.508V29.9108C63.7489 29.9108 66.3019 29.9108 68.8548 29.9108C70.2596 29.9108 71.6666 29.9615 73.069 29.897C74.5153 29.8301 75.3194 30.4182 75.6405 31.8481C76.3613 35.0447 77.1931 38.2183 77.8862 41.4218C78.0595 42.2221 78.3668 42.455 79.1246 42.432C80.5293 42.3904 81.934 42.4089 83.3387 42.425C86.4208 42.4596 88.38 44.4339 88.4031 47.5428C88.4216 50.0475 88.4077 52.5522 88.4077 55.1215C88.9253 55.1492 89.2995 55.1699 89.6761 55.193C90.9907 55.2714 91.767 55.9864 91.8432 57.271C91.931 58.7171 91.9218 60.1747 91.8479 61.6231C91.7763 63 91.0138 63.6619 89.556 63.678C86.9891 63.708 84.42 63.7196 81.8531 63.6734C80.9174 63.6573 80.2775 63.8833 79.6444 64.6675C75.9871 69.1833 69.7906 69.068 66.1194 64.5337C65.7636 64.0955 65.0312 63.7311 64.4697 63.7265C57.929 63.6711 51.386 63.6711 44.8453 63.7265C44.2862 63.7311 43.5607 64.1047 43.2026 64.5429C39.4574 69.121 33.3118 69.1395 29.532 64.5891C29.1415 64.1209 28.3606 63.7426 27.7507 63.7288C24.0217 63.6504 20.2904 63.7011 16.5591 63.6827C14.7177 63.6734 14.0408 62.9792 14.0085 61.1341C13.9923 60.1678 14.0038 59.1991 14.0062 58.2304C14.0108 56.021 14.3966 55.5343 16.6377 55.0362L16.64 55.0385ZM18.6316 55.1884C21.8499 55.1884 24.8511 55.2368 27.8477 55.1469C28.4438 55.1284 29.2039 54.7317 29.5828 54.2635C33.0992 49.8953 39.5984 49.8838 43.1032 54.2428C43.4821 54.7156 44.2422 55.1376 44.8337 55.1469C49.1934 55.223 53.5554 55.1907 57.9151 55.1838C58.2825 55.1838 58.6499 55.1146 58.9618 55.0823V27.6229C58.5621 27.9596 58.2964 28.158 58.0584 28.3863C56.8477 29.5487 55.5493 30.4366 53.7842 29.6087C52.0098 28.7761 51.7326 27.2147 51.7857 25.4688C51.8342 23.8981 51.7949 22.3252 51.7949 20.6716C51.1711 20.6716 50.7876 20.6716 50.4064 20.6716C40.474 20.6716 30.5393 20.6716 20.6069 20.6716C18.7563 20.6716 18.6316 20.8007 18.6316 22.6596C18.6316 33.0151 18.6316 43.3683 18.6316 53.7238V55.1861V55.1884ZM67.3947 1.95784C63.4717 1.95784 59.5509 1.96707 55.6279 1.95093C54.4796 1.94631 53.7818 2.32455 53.7842 3.6115C53.798 11.204 53.7772 18.7942 53.8234 26.3867C53.8258 26.8756 54.1792 27.6529 54.5443 27.7751C55.0156 27.9342 55.7803 27.7244 56.2147 27.4015C57.2197 26.6542 58.1254 25.7663 59.0264 24.8922C60.0176 23.9327 61.1336 23.5014 62.5475 23.5153C68.0185 23.5706 73.4918 23.5407 78.9628 23.536C80.6771 23.536 81.0861 23.137 81.0884 21.4004C81.1 15.5976 81.1023 9.79482 81.0884 3.99204C81.0838 2.31533 80.721 1.96707 79.0183 1.96246C75.1437 1.94862 71.2692 1.95785 67.397 1.96015L67.3947 1.95784ZM61.1774 31.8458V55.1838C62.365 55.1838 63.437 55.2737 64.4859 55.1492C65.0635 55.08 65.7705 54.7917 66.124 54.3581C69.8853 49.7546 76.1626 49.7869 79.887 54.4642C80.1296 54.7686 80.5316 55.1353 80.8712 55.1469C82.6964 55.2137 84.524 55.1791 86.2845 55.1791C86.6449 54.0191 86.2452 53.6547 85.2679 53.7515C84.8358 53.793 84.3969 53.7631 83.9602 53.7561C82.1466 53.7262 81.5389 53.0758 81.5042 51.1361C81.4627 48.8413 82.0565 48.041 83.9048 47.9603C84.7157 47.9257 85.529 47.9534 86.3237 47.9534C86.5802 45.6286 85.6052 44.4431 83.5097 44.4062C82.0079 44.3785 80.5062 44.4016 79.0044 44.397C76.969 44.39 76.433 43.9726 75.994 42.033C75.4649 39.6805 74.9543 37.3257 74.4252 34.9732C73.9539 32.8852 72.6354 31.8412 70.4698 31.8412H61.1797L61.1774 31.8458ZM64.5806 57.2479H44.7482V61.743H64.5806V57.2479ZM36.3176 65.9982C39.9426 66.0121 42.9022 63.1407 42.9762 59.5312C43.0501 55.9679 39.9426 52.8543 36.3315 52.8728C32.7457 52.8912 29.7746 55.8641 29.763 59.4459C29.7515 63.0323 32.7041 65.9821 36.3176 65.9982ZM72.9188 65.9982C76.5901 66.0213 79.455 63.2168 79.5197 59.5405C79.5843 55.8687 76.6109 52.8543 72.9443 52.8728C69.3886 52.8936 66.3573 55.9033 66.3389 59.4367C66.3204 62.9769 69.3285 65.9752 72.9165 65.9959L72.9188 65.9982ZM27.9609 57.2848H16.0855V61.6992H27.9609V57.2848ZM81.3772 57.2572V61.7177H89.8193V57.2572H81.3772ZM83.549 49.9968V51.8511H86.3145V49.9968H83.549Z" fill="white"/>
<path d="M40.5175 11.0702C41.1737 11.0702 41.7882 10.9387 42.2988 11.1117C42.7031 11.2501 42.9804 11.7644 43.3131 12.1126C42.985 12.4148 42.6824 12.7584 42.3127 13.0006C42.1417 13.1136 41.8414 13.0352 41.5988 13.0352C33.1682 13.0352 24.7375 13.0352 16.3046 13.0352C16.0135 13.0352 15.6508 13.1251 15.4498 12.9867C15.0963 12.7446 14.6042 12.3525 14.6134 12.0342C14.6203 11.7067 15.2072 11.0863 15.4567 11.1255C16.9908 11.3654 17.3928 10.2445 18.2869 9.38883C19.895 7.8505 20.6019 5.98928 21.5723 4.12344C23.9312 -0.420068 30.3495 -0.604575 33.3137 3.59298C33.6141 4.01735 34.0738 4.55242 34.5174 4.61469C38.6484 5.19358 40.2611 6.82187 40.5198 11.0725L40.5175 11.0702ZM19.4791 10.775C19.8002 10.9548 19.8765 11.0356 19.955 11.0356C25.8604 11.0471 31.7681 11.0425 37.6734 11.0679C38.5144 11.0725 38.6276 10.6642 38.5537 9.97234C38.3388 7.9589 36.8001 6.5797 34.5613 6.57048C33.4362 6.56587 32.6345 6.22683 32.0268 5.24663C30.6452 3.01639 28.7322 2.17919 26.3895 2.68197C24.4118 3.10634 22.9839 4.72078 22.6004 7.10093C22.4248 8.18953 21.9766 8.95985 20.9531 9.47186C20.4102 9.74401 20.0082 10.2929 19.4791 10.7726V10.775Z" fill="white"/>
<path d="M35.8183 44.9113C35.6727 48.0641 33.4455 47.8773 31.2853 47.8381C31.2483 48.3778 31.2229 48.7975 31.1929 49.2173C31.0542 51.2031 29.6449 52.573 27.7296 52.5799C25.812 52.5869 24.234 51.097 24.1785 49.1181C24.1254 47.1393 24.167 45.1604 24.167 43.0524C21.5054 42.5819 21.0572 40.7345 21.2073 38.4236C21.3182 36.6915 21.2096 34.9456 21.2374 33.2043C21.2651 31.4307 22.3556 30.2383 24.1069 30.2522C25.5832 30.2637 27.0573 30.5289 28.5336 30.6258C28.9356 30.6535 29.3676 30.5313 29.7558 30.3929C33.2999 29.1313 36.8441 27.8697 40.3674 26.5551C40.8618 26.3706 41.3193 25.9624 41.6705 25.5518C42.5923 24.4771 43.6644 23.8567 45.1037 24.2372C46.5662 24.6247 47.4465 25.7387 47.4511 27.3231C47.4765 33.5087 47.458 39.6944 47.458 45.8823C47.458 47.25 46.7695 48.221 45.545 48.6845C44.2974 49.155 42.9135 49.1089 42.1072 47.958C41.3031 46.8118 40.1895 46.4404 39.0228 46.0253C38.027 45.6701 37.0266 45.3288 35.8183 44.909V44.9113ZM41.0328 28.4279C37.4725 29.701 34.1039 30.8749 30.77 32.1388C30.3958 32.2795 30.0076 32.9368 29.9914 33.3681C29.9106 35.4945 29.9868 37.6233 29.9383 39.752C29.9198 40.5108 30.1717 40.8406 30.8994 41.0874C33.5056 41.9661 36.0817 42.9348 38.6762 43.855C39.4225 44.1203 40.1872 44.3371 41.0351 44.6069V28.4279H41.0328ZM43.059 36.5162C43.059 39.4199 43.0706 42.3213 43.0521 45.225C43.0475 46.1844 43.1884 47.0539 44.3713 47.0516C45.4664 47.0516 45.6536 46.2167 45.6536 45.3196C45.6536 39.5145 45.6513 33.7094 45.6536 27.902C45.6536 26.9702 45.3463 26.1746 44.3228 26.1976C43.3132 26.2207 43.0382 27.0072 43.0475 27.9504C43.0729 30.8057 43.0567 33.6587 43.0567 36.5139L43.059 36.5162ZM27.9583 36.5531C27.9583 36.168 27.9629 35.7805 27.9583 35.3953C27.9052 31.9012 28.5706 32.2172 24.5251 32.1872C23.5408 32.1803 23.1042 32.577 23.118 33.5526C23.1365 34.9018 23.1203 36.2533 23.118 37.6025C23.1111 41.4172 22.8269 40.9467 26.7338 40.9721C27.584 40.9767 27.9699 40.5731 27.9606 39.7359C27.9491 38.675 27.9583 37.614 27.9606 36.5531H27.9583ZM29.1967 42.3836C28.023 42.6788 27.1173 42.9048 26.1308 43.1516C26.1308 45.1028 26.0314 47.0309 26.1909 48.9359C26.2394 49.5079 26.9671 50.3843 27.4777 50.4535C27.9906 50.525 29.0858 49.8008 29.1181 49.3649C29.2868 47.1001 29.1967 44.8145 29.1967 42.3813V42.3836ZM33.665 45.8062C33.8267 43.9519 33.5079 43.6659 31.2807 43.5068V45.8062H33.665Z" fill="white"/>
<path d="M59.6942 12.7701C59.6942 11.3701 59.6503 9.97015 59.7034 8.5725C59.819 5.50506 62.2679 4.11663 64.9249 5.61115C67.3208 6.95806 69.7098 8.3188 72.071 9.72337C74.7834 11.3378 74.7533 14.1516 72.0132 15.7706C69.6474 17.1706 67.2653 18.5428 64.8694 19.8898C62.3673 21.2966 59.8929 19.9751 59.7127 17.1129C59.6226 15.6714 59.6965 14.2184 59.6965 12.7724C59.6965 12.7724 59.6942 12.7724 59.6919 12.7724L59.6942 12.7701ZM61.665 12.6501C61.665 14.1008 61.6257 15.5538 61.6765 17.0022C61.7227 18.3284 62.5845 18.9096 63.6866 18.3076C66.2719 16.8938 68.8318 15.4293 71.3594 13.9117C72.4383 13.2636 72.4568 12.2442 71.394 11.5984C68.8757 10.067 66.3227 8.59095 63.7351 7.17947C62.6007 6.56136 61.7204 7.14026 61.6742 8.44334C61.6234 9.8433 61.6626 11.2479 61.6626 12.6501H61.665Z" fill="white"/>
<path d="M68.2114 44.45C67.0978 44.45 65.9865 44.4615 64.8729 44.45C63.2325 44.4316 62.5533 43.8019 62.5325 42.2128C62.5048 40.1348 62.5048 38.0568 62.5325 35.9811C62.5533 34.5765 63.2787 33.7924 64.6488 33.7578C66.5826 33.707 68.5187 33.7255 70.4549 33.7532C71.5523 33.7693 72.2731 34.3297 72.5296 35.4183C73.0471 37.6209 73.6039 39.8165 74.0613 42.0329C74.3686 43.5182 73.5554 44.4154 71.9843 44.4477C70.7275 44.4731 69.4683 44.4523 68.2091 44.4523L68.2114 44.45ZM72.1553 42.4665C71.5892 40.0887 71.0694 37.9138 70.5681 35.8081H64.5541V42.4665H72.1553Z" fill="white"/>
<path d="M65.4633 48.5969C64.791 48.5969 64.0955 48.7006 63.4579 48.5553C63.1067 48.4746 62.6238 47.9765 62.6192 47.6605C62.6145 47.3653 63.146 46.8256 63.4717 46.8025C64.8095 46.7033 66.161 46.7057 67.4987 46.8025C67.8106 46.8256 68.3236 47.386 68.3074 47.6743C68.2912 47.9972 67.8176 48.4839 67.4687 48.5623C66.8287 48.7053 66.1333 48.6038 65.4633 48.6038C65.4633 48.6015 65.4633 48.5992 65.4633 48.5969Z" fill="white"/>
<path d="M32.293 59.5013C32.2838 57.1211 33.9911 55.4329 36.4009 55.4444C38.6905 55.4559 40.4441 57.188 40.451 59.4459C40.4579 61.7061 38.5449 63.6204 36.3108 63.5927C34.1113 63.565 32.3022 61.7223 32.293 59.5036V59.5013ZM38.471 59.6396C38.5657 58.4127 37.6647 57.3587 36.4632 57.2849C35.3496 57.218 34.3238 58.1359 34.2407 59.2775C34.1505 60.5045 34.9176 61.4547 36.0982 61.5793C37.3574 61.7107 38.3786 60.8758 38.4733 59.6373L38.471 59.6396Z" fill="white"/>
<path d="M73.0574 55.4444C75.3354 55.4629 77.0728 57.2157 77.0612 59.4828C77.0497 61.7546 75.132 63.6481 72.9002 63.5927C70.6915 63.5374 68.9102 61.6946 68.9102 59.469C68.9102 57.1211 70.6592 55.4236 73.055 55.4444H73.0574ZM75.0743 59.3975C75.0535 58.2282 74.1178 57.2872 72.9811 57.2872C71.819 57.2872 70.7539 58.3758 70.7932 59.5243C70.8324 60.6706 71.7889 61.5816 72.9603 61.5908C74.2402 61.6 75.0974 60.7121 75.0743 59.3998V59.3975Z" fill="white"/>
<path d="M3.52449 97.7793V89.2593H0.164492V87.2793H9.31449V89.2593H5.95449V97.7793H3.52449ZM10.2812 97.7793V89.7093H12.5162V91.9893L12.2012 91.3293C12.4412 90.7593 12.8262 90.3293 13.3562 90.0393C13.8862 89.7393 14.5312 89.5893 15.2912 89.5893V91.7493C15.1912 91.7393 15.1012 91.7343 15.0212 91.7343C14.9412 91.7243 14.8562 91.7193 14.7662 91.7193C14.1262 91.7193 13.6062 91.9043 13.2062 92.2743C12.8162 92.6343 12.6212 93.1993 12.6212 93.9693V97.7793H10.2812ZM21.1052 97.7793V96.2043L20.9552 95.8593V93.0393C20.9552 92.5393 20.8002 92.1493 20.4902 91.8693C20.1902 91.5893 19.7252 91.4493 19.0952 91.4493C18.6652 91.4493 18.2402 91.5193 17.8202 91.6593C17.4102 91.7893 17.0602 91.9693 16.7702 92.1993L15.9302 90.5643C16.3702 90.2543 16.9002 90.0143 17.5202 89.8443C18.1402 89.6743 18.7702 89.5893 19.4102 89.5893C20.6402 89.5893 21.5952 89.8793 22.2752 90.4593C22.9552 91.0393 23.2952 91.9443 23.2952 93.1743V97.7793H21.1052ZM18.6452 97.8993C18.0152 97.8993 17.4752 97.7943 17.0252 97.5843C16.5752 97.3643 16.2302 97.0693 15.9902 96.6993C15.7502 96.3293 15.6302 95.9143 15.6302 95.4543C15.6302 94.9743 15.7452 94.5543 15.9752 94.1943C16.2152 93.8343 16.5902 93.5543 17.1002 93.3543C17.6102 93.1443 18.2752 93.0393 19.0952 93.0393H21.2402V94.4043H19.3502C18.8002 94.4043 18.4202 94.4943 18.2102 94.6743C18.0102 94.8543 17.9102 95.0793 17.9102 95.3493C17.9102 95.6493 18.0252 95.8893 18.2552 96.0693C18.4952 96.2393 18.8202 96.3243 19.2302 96.3243C19.6202 96.3243 19.9702 96.2343 20.2802 96.0543C20.5902 95.8643 20.8152 95.5893 20.9552 95.2293L21.3152 96.3093C21.1452 96.8293 20.8352 97.2243 20.3852 97.4943C19.9352 97.7643 19.3552 97.8993 18.6452 97.8993ZM30.318 89.5893C30.958 89.5893 31.528 89.7193 32.028 89.9793C32.538 90.2293 32.938 90.6193 33.228 91.1493C33.518 91.6693 33.663 92.3393 33.663 93.1593V97.7793H31.323V93.5193C31.323 92.8693 31.178 92.3893 30.888 92.0793C30.608 91.7693 30.208 91.6143 29.688 91.6143C29.318 91.6143 28.983 91.6943 28.683 91.8543C28.393 92.0043 28.163 92.2393 27.993 92.5593C27.833 92.8793 27.753 93.2893 27.753 93.7893V97.7793H25.413V89.7093H27.648V91.9443L27.228 91.2693C27.518 90.7293 27.933 90.3143 28.473 90.0243C29.013 89.7343 29.628 89.5893 30.318 89.5893ZM38.4991 97.8993C37.8091 97.8993 37.1441 97.8193 36.5041 97.6593C35.8741 97.4893 35.3741 97.2793 35.0041 97.0293L35.7841 95.3493C36.1541 95.5793 36.5891 95.7693 37.0891 95.9193C37.5991 96.0593 38.0991 96.1293 38.5891 96.1293C39.1291 96.1293 39.5091 96.0643 39.7291 95.9343C39.9591 95.8043 40.0741 95.6243 40.0741 95.3943C40.0741 95.2043 39.9841 95.0643 39.8041 94.9743C39.6341 94.8743 39.4041 94.7993 39.1141 94.7493C38.8241 94.6993 38.5041 94.6493 38.1541 94.5993C37.8141 94.5493 37.4691 94.4843 37.1191 94.4043C36.7691 94.3143 36.4491 94.1843 36.1591 94.0143C35.8691 93.8443 35.6341 93.6143 35.4541 93.3243C35.2841 93.0343 35.1991 92.6593 35.1991 92.1993C35.1991 91.6893 35.3441 91.2393 35.6341 90.8493C35.9341 90.4593 36.3641 90.1543 36.9241 89.9343C37.4841 89.7043 38.1541 89.5893 38.9341 89.5893C39.4841 89.5893 40.0441 89.6493 40.6141 89.7693C41.1841 89.8893 41.6591 90.0643 42.0391 90.2943L41.2591 91.9593C40.8691 91.7293 40.4741 91.5743 40.0741 91.4943C39.6841 91.4043 39.3041 91.3593 38.9341 91.3593C38.4141 91.3593 38.0341 91.4293 37.7941 91.5693C37.5541 91.7093 37.4341 91.8893 37.4341 92.1093C37.4341 92.3093 37.5191 92.4593 37.6891 92.5593C37.8691 92.6593 38.1041 92.7393 38.3941 92.7993C38.6841 92.8593 38.9991 92.9143 39.3391 92.9643C39.6891 93.0043 40.0391 93.0693 40.3891 93.1593C40.7391 93.2493 41.0541 93.3793 41.3341 93.5493C41.6241 93.7093 41.8591 93.9343 42.0391 94.2243C42.2191 94.5043 42.3091 94.8743 42.3091 95.3343C42.3091 95.8343 42.1591 96.2793 41.8591 96.6693C41.5591 97.0493 41.1241 97.3493 40.5541 97.5693C39.9941 97.7893 39.3091 97.8993 38.4991 97.8993ZM43.7529 97.7793V89.7093H46.0929V97.7793H43.7529ZM44.9229 88.5843C44.4929 88.5843 44.1429 88.4593 43.8729 88.2093C43.6029 87.9593 43.4679 87.6493 43.4679 87.2793C43.4679 86.9093 43.6029 86.5993 43.8729 86.3493C44.1429 86.0993 44.4929 85.9743 44.9229 85.9743C45.3529 85.9743 45.7029 86.0943 45.9729 86.3343C46.2429 86.5643 46.3779 86.8643 46.3779 87.2343C46.3779 87.6243 46.2429 87.9493 45.9729 88.2093C45.7129 88.4593 45.3629 88.5843 44.9229 88.5843ZM51.5646 97.8993C50.6146 97.8993 49.8746 97.6593 49.3446 97.1793C48.8146 96.6893 48.5496 95.9643 48.5496 95.0043V87.9243H50.8896V94.9743C50.8896 95.3143 50.9796 95.5793 51.1596 95.7693C51.3396 95.9493 51.5846 96.0393 51.8946 96.0393C52.2646 96.0393 52.5796 95.9393 52.8396 95.7393L53.4696 97.3893C53.2296 97.5593 52.9396 97.6893 52.5996 97.7793C52.2696 97.8593 51.9246 97.8993 51.5646 97.8993ZM47.3046 91.6893V89.8893H52.8996V91.6893H47.3046ZM59.1962 97.7793V87.2793H61.2062L65.6762 94.6893H64.6112L69.0062 87.2793H71.0012L71.0312 97.7793H68.7512L68.7362 90.7743H69.1562L65.6462 96.6693H64.5512L60.9662 90.7743H61.4762V97.7793H59.1962ZM77.3623 97.8993C76.4423 97.8993 75.6323 97.7193 74.9323 97.3593C74.2423 96.9993 73.7073 96.5093 73.3273 95.8893C72.9473 95.2593 72.7573 94.5443 72.7573 93.7443C72.7573 92.9343 72.9423 92.2193 73.3123 91.5993C73.6923 90.9693 74.2073 90.4793 74.8573 90.1293C75.5073 89.7693 76.2423 89.5893 77.0623 89.5893C77.8523 89.5893 78.5623 89.7593 79.1923 90.0993C79.8323 90.4293 80.3373 90.9093 80.7073 91.5393C81.0773 92.1593 81.2623 92.9043 81.2623 93.7743C81.2623 93.8643 81.2573 93.9693 81.2473 94.0893C81.2373 94.1993 81.2273 94.3043 81.2173 94.4043H74.6623V93.0393H79.9873L79.0873 93.4443C79.0873 93.0243 79.0023 92.6593 78.8323 92.3493C78.6623 92.0393 78.4273 91.7993 78.1273 91.6293C77.8273 91.4493 77.4773 91.3593 77.0773 91.3593C76.6773 91.3593 76.3223 91.4493 76.0123 91.6293C75.7123 91.7993 75.4773 92.0443 75.3073 92.3643C75.1373 92.6743 75.0523 93.0443 75.0523 93.4743V93.8343C75.0523 94.2743 75.1473 94.6643 75.3373 95.0043C75.5373 95.3343 75.8123 95.5893 76.1623 95.7693C76.5223 95.9393 76.9423 96.0243 77.4223 96.0243C77.8523 96.0243 78.2273 95.9593 78.5473 95.8293C78.8773 95.6993 79.1773 95.5043 79.4473 95.2443L80.6923 96.5943C80.3223 97.0143 79.8573 97.3393 79.2973 97.5693C78.7373 97.7893 78.0923 97.8993 77.3623 97.8993ZM86.2852 97.8993C85.5252 97.8993 84.8402 97.7293 84.2302 97.3893C83.6202 97.0393 83.1352 96.5543 82.7752 95.9343C82.4252 95.3143 82.2502 94.5843 82.2502 93.7443C82.2502 92.8943 82.4252 92.1593 82.7752 91.5393C83.1352 90.9193 83.6202 90.4393 84.2302 90.0993C84.8402 89.7593 85.5252 89.5893 86.2852 89.5893C86.9652 89.5893 87.5602 89.7393 88.0702 90.0393C88.5802 90.3393 88.9752 90.7943 89.2552 91.4043C89.5352 92.0143 89.6752 92.7943 89.6752 93.7443C89.6752 94.6843 89.5402 95.4643 89.2702 96.0843C89.0002 96.6943 88.6102 97.1493 88.1002 97.4493C87.6002 97.7493 86.9952 97.8993 86.2852 97.8993ZM86.6902 95.9793C87.0702 95.9793 87.4152 95.8893 87.7252 95.7093C88.0352 95.5293 88.2802 95.2743 88.4602 94.9443C88.6502 94.6043 88.7452 94.2043 88.7452 93.7443C88.7452 93.2743 88.6502 92.8743 88.4602 92.5443C88.2802 92.2143 88.0352 91.9593 87.7252 91.7793C87.4152 91.5993 87.0702 91.5093 86.6902 91.5093C86.3002 91.5093 85.9502 91.5993 85.6402 91.7793C85.3302 91.9593 85.0802 92.2143 84.8902 92.5443C84.7102 92.8743 84.6202 93.2743 84.6202 93.7443C84.6202 94.2043 84.7102 94.6043 84.8902 94.9443C85.0802 95.2743 85.3302 95.5293 85.6402 95.7093C85.9502 95.8893 86.3002 95.9793 86.6902 95.9793ZM88.8052 97.7793V96.1293L88.8502 93.7293L88.7002 91.3443V86.6493H91.0402V97.7793H88.8052ZM93.206 97.7793V89.7093H95.546V97.7793H93.206ZM94.376 88.5843C93.946 88.5843 93.596 88.4593 93.326 88.2093C93.056 87.9593 92.921 87.6493 92.921 87.2793C92.921 86.9093 93.056 86.5993 93.326 86.3493C93.596 86.0993 93.946 85.9743 94.376 85.9743C94.806 85.9743 95.156 86.0943 95.426 86.3343C95.696 86.5643 95.831 86.8643 95.831 87.2343C95.831 87.6243 95.696 87.9493 95.426 88.2093C95.166 88.4593 94.816 88.5843 94.376 88.5843ZM102.668 97.7793V96.2043L102.518 95.8593V93.0393C102.518 92.5393 102.363 92.1493 102.053 91.8693C101.753 91.5893 101.288 91.4493 100.658 91.4493C100.228 91.4493 99.8027 91.5193 99.3827 91.6593C98.9727 91.7893 98.6227 91.9693 98.3327 92.1993L97.4927 90.5643C97.9327 90.2543 98.4627 90.0143 99.0827 89.8443C99.7027 89.6743 100.333 89.5893 100.973 89.5893C102.203 89.5893 103.158 89.8793 103.838 90.4593C104.518 91.0393 104.858 91.9443 104.858 93.1743V97.7793H102.668ZM100.208 97.8993C99.5777 97.8993 99.0377 97.7943 98.5877 97.5843C98.1377 97.3643 97.7927 97.0693 97.5527 96.6993C97.3127 96.3293 97.1927 95.9143 97.1927 95.4543C97.1927 94.9743 97.3077 94.5543 97.5377 94.1943C97.7777 93.8343 98.1527 93.5543 98.6627 93.3543C99.1727 93.1443 99.8377 93.0393 100.658 93.0393H102.803V94.4043H100.913C100.363 94.4043 99.9827 94.4943 99.7727 94.6743C99.5727 94.8543 99.4727 95.0793 99.4727 95.3493C99.4727 95.6493 99.5877 95.8893 99.8177 96.0693C100.058 96.2393 100.383 96.3243 100.793 96.3243C101.183 96.3243 101.533 96.2343 101.843 96.0543C102.153 95.8643 102.378 95.5893 102.518 95.2293L102.878 96.3093C102.708 96.8293 102.398 97.2243 101.948 97.4943C101.498 97.7643 100.918 97.8993 100.208 97.8993Z" fill="white"/>
</svg>
